<?xml version="1.0" standalone="no"?>
<!DOCTYPE svg PUBLIC "-//W3C//DTD SVG 20010904//EN"
 "http://www.w3.org/TR/2001/REC-SVG-20010904/DTD/svg10.dtd">
<svg version="1.0" xmlns="http://www.w3.org/2000/svg"
 width="1024.000000pt" height="1024.000000pt" viewBox="0 0 1024.000000 1024.000000"
 preserveAspectRatio="xMidYMid meet">
<metadata>
Created by potrace 1.11, written by Peter Selinger 2001-2013
</metadata>
<g transform="translate(0.000000,1024.000000) scale(0.100000,-0.100000)"
fill="#000000" stroke="none">
<path d="M4986 9710 l-149 -269 -194 -46 c-106 -26 -193 -50 -193 -54 0 -14
140 -544 145 -549 2 -3 12 1 22 9 23 18 291 246 321 273 21 19 20 14 -13 -79
-20 -55 -43 -118 -51 -140 l-15 -40 -219 -79 -220 -79 -205 123 c-113 68 -204
124 -203 125 2 2 39 -3 83 -11 138 -23 125 -29 200 97 36 61 65 111 65 113 0
1 -103 53 -229 115 l-229 115 23 60 c13 34 26 68 30 77 5 13 -40 43 -215 144
-122 70 -223 125 -225 123 -2 -2 41 -224 96 -493 80 -397 105 -545 134 -782
19 -160 35 -298 35 -307 0 -9 6 -16 13 -16 6 0 325 74 707 165 l695 166 660
-199 c363 -110 661 -198 663 -197 1 1 16 141 32 311 26 270 42 375 124 829 52
286 93 521 91 523 -2 2 -103 -53 -225 -123 -176 -101 -220 -131 -215 -144 4
-9 17 -43 30 -77 l23 -60 -229 -114 c-126 -63 -228 -117 -227 -120 2 -3 32
-53 66 -112 72 -122 60 -116 197 -94 44 8 81 12 83 11 5 -5 -379 -245 -391
-244 -7 0 -97 40 -201 87 l-190 87 -46 80 c-25 44 -61 107 -80 140 l-34 60 81
-75 c45 -41 125 -115 178 -164 52 -49 98 -86 101 -83 7 7 146 548 142 553 -2
2 -85 25 -183 52 l-180 48 -160 267 c-88 146 -162 266 -165 266 -3 1 -72 -120
-154 -269z"/>
<path d="M4455 8213 l-700 -165 -67 -55 c-38 -30 -74 -53 -81 -50 -7 2 -57 32
-111 65 -56 35 -104 58 -111 54 -38 -23 -465 -345 -465 -351 0 -4 73 -17 163
-29 89 -13 194 -28 234 -34 l72 -10 -141 -187 c-78 -102 -209 -266 -291 -363
l-150 -177 -303 -728 c-166 -400 -307 -735 -312 -743 -5 -8 -96 -49 -201 -90
-105 -41 -190 -77 -190 -80 0 -3 93 -65 207 -139 l207 -133 117 -21 c65 -11
117 -24 116 -27 -2 -4 -83 -82 -181 -174 -97 -92 -177 -168 -177 -169 -2 -17
-30 -699 -30 -739 l0 -58 -137 0 c-76 0 -144 -4 -151 -8 -10 -7 -12 -204 -10
-953 l3 -944 433 -3 c237 -1 432 -6 432 -10 0 -4 -34 -89 -74 -189 -44 -107
-70 -183 -63 -183 7 0 151 27 322 60 l309 60 103 65 c57 36 104 65 106 65 2 0
9 -134 16 -298 14 -321 16 -350 22 -356 2 -3 60 134 129 304 105 259 126 304
132 282 4 -15 28 -229 53 -477 47 -464 53 -520 61 -513 2 3 31 81 64 174 33
93 108 283 167 421 95 223 123 278 123 244 0 -6 117 -281 261 -613 143 -332
267 -619 275 -638 13 -29 17 -32 24 -19 5 9 97 274 205 589 107 316 197 575
199 577 2 2 83 -191 180 -430 98 -238 181 -439 187 -447 7 -12 11 -12 17 -2
346 593 448 760 458 749 7 -7 109 -167 228 -357 119 -190 220 -346 225 -348 4
-1 124 233 266 520 142 288 259 525 261 526 1 2 72 -44 158 -102 85 -59 157
-103 159 -99 3 5 31 106 62 226 l58 217 629 0 628 0 -2 952 -3 953 -228 0
-228 0 5 30 c3 17 9 50 12 74 l7 44 226 149 c124 82 227 152 228 156 2 4 -65
45 -148 92 -82 46 -154 89 -158 95 -14 17 -271 496 -271 504 0 5 35 18 78 31
42 12 81 26 85 30 5 4 -142 167 -326 361 -184 195 -334 355 -333 355 0 1 78
-11 171 -25 94 -15 171 -24 173 -20 2 4 -97 229 -219 500 l-221 494 -107 141
-107 142 28 208 c15 115 28 214 28 220 0 6 -85 -2 -237 -23 -130 -18 -238 -32
-239 -30 -6 6 145 402 154 405 5 1 101 -18 212 -43 112 -25 205 -44 206 -42 4
3 -393 339 -422 357 -18 11 -36 8 -132 -24 l-112 -38 -755 216 c-415 119 -763
215 -772 215 -10 -1 -333 -76 -718 -166z m483 -783 c117 -127 218 -230 224
-230 6 0 116 104 244 232 l234 232 211 -45 212 -44 171 -90 170 -90 50 -282
c27 -156 47 -285 45 -287 -3 -3 -106 10 -229 28 -124 18 -243 31 -265 29 -265
-21 -411 -35 -417 -41 -4 -4 -8 -174 -10 -379 -2 -204 -1 -369 1 -367 3 2 37
118 77 257 39 138 76 251 80 251 5 -1 83 -14 174 -29 l165 -27 185 80 c125 54
187 76 192 68 12 -20 148 -397 148 -409 0 -7 -66 -59 -147 -117 -127 -91 -260
-200 -421 -346 l-43 -39 61 -132 62 -132 18 -208 c11 -114 21 -226 24 -249 l5
-41 -146 -67 c-80 -37 -153 -64 -162 -61 -57 18 -636 275 -635 282 1 4 26 91
55 191 l53 184 219 171 219 172 -194 7 c-106 3 -341 10 -522 13 l-328 7 6 247
c3 135 9 327 12 426 l6 180 -237 54 -238 54 -226 -15 c-124 -9 -227 -15 -229
-13 -1 1 62 112 141 246 l144 244 228 152 c126 84 238 154 250 156 11 2 49 5
85 5 l65 1 213 -229z m-943 -775 l136 -85 138 0 c76 0 165 -3 198 -6 l61 -7 6
-88 c3 -49 9 -130 12 -180 l7 -90 -24 6 c-13 3 -69 14 -125 24 l-101 18 -190
-62 -191 -62 -113 95 c-62 51 -123 102 -136 112 l-23 18 101 196 c55 108 102
196 105 196 2 0 65 -38 139 -85z m728 -1001 c339 -178 301 -136 314 -344 4
-69 8 -129 8 -134 0 -4 -38 -23 -85 -42 -71 -28 -147 -44 -454 -94 -203 -33
-371 -58 -374 -55 -4 4 289 825 294 825 1 0 135 -70 297 -156z m880 -784 c141
-101 145 -104 288 -286 6 -7 -39 -111 -121 -280 l-130 -269 -164 -93 c-91 -52
-169 -92 -173 -89 -5 3 -51 96 -103 206 -52 110 -97 197 -101 193 -4 -4 -34
-91 -69 -194 -34 -104 -64 -188 -67 -188 -2 0 -46 27 -96 59 -51 33 -150 93
-222 133 l-129 73 -79 249 c-63 198 -76 251 -66 257 8 4 113 78 233 163 126
90 227 154 235 152 9 -3 81 -14 161 -25 l145 -21 130 29 c72 16 143 30 159 30
21 1 66 -25 169 -99z m-2503 -1490 c68 -39 91 -88 97 -213 5 -84 3 -105 -10
-115 -10 -9 -47 -12 -123 -10 l-109 3 -5 56 c-3 37 -12 65 -25 78 -19 22 -24
22 -277 19 -253 -3 -258 -3 -280 -26 -23 -22 -23 -24 -23 -318 l0 -296 28 -24
28 -24 253 0 c195 0 256 3 270 13 13 10 21 32 25 78 l6 64 109 3 c76 2 113 -1
123 -10 24 -20 13 -199 -15 -255 -52 -100 -79 -105 -552 -101 l-376 3 -49 26
c-41 21 -55 35 -80 84 l-30 59 0 375 c0 288 3 385 13 414 25 69 81 119 157
138 17 4 203 7 415 6 l385 -2 45 -25z m1288 18 c8 -8 12 -45 12 -102 l0 -90
-162 -161 c-90 -88 -249 -245 -354 -348 l-191 -187 342 0 c282 0 345 -2 354
-14 8 -9 11 -46 9 -103 l-3 -88 -530 0 -530 0 -3 92 -3 91 364 354 364 353
-351 5 -351 5 -3 89 c-2 49 -1 95 2 103 7 18 1016 19 1034 1z m1179 -3 c60
-18 116 -74 132 -132 17 -60 14 -369 -4 -429 -26 -89 -94 -136 -218 -152 l-57
-7 165 -174 c91 -95 165 -180 165 -187 0 -11 -29 -14 -148 -14 l-148 0 -165
185 -164 184 -142 1 -143 0 -2 -182 -3 -183 -119 -3 c-89 -2 -121 1 -128 10
-13 22 -10 1072 4 1086 9 9 127 12 468 12 377 0 465 -3 507 -15z m1408 -90 l0
-100 -407 -3 -408 -2 0 -120 0 -120 345 0 345 0 5 -23 c3 -12 5 -56 3 -97 l-3
-75 -347 -3 -348 -2 0 -125 0 -125 398 0 c218 0 403 -4 410 -8 9 -6 12 -34 10
-103 l-3 -94 -529 -3 c-417 -2 -531 0 -538 10 -4 7 -8 252 -8 544 0 401 3 533
12 542 9 9 137 12 538 10 l525 -3 0 -100z m1169 75 c72 -37 91 -79 91 -200 l0
-95 -114 -3 c-125 -3 -131 -1 -131 55 0 60 -14 63 -296 63 -310 0 -299 4 -299
-119 1 -124 -27 -115 378 -121 329 -5 344 -6 384 -27 91 -49 108 -98 108 -308
0 -151 -1 -163 -25 -210 -27 -53 -70 -88 -129 -105 -21 -6 -194 -10 -422 -10
-435 0 -464 4 -517 64 -47 53 -72 227 -38 255 9 8 51 11 122 9 l108 -3 9 -45
c5 -25 16 -51 25 -57 12 -10 86 -13 288 -13 326 0 316 -3 322 106 5 92 -7 120
-55 133 -23 7 -159 11 -339 11 -323 0 -360 5 -413 53 -51 47 -61 88 -61 262 0
184 8 222 56 270 61 62 84 64 514 62 l386 -2 48 -25z"/>
<path d="M4840 3040 l0 -161 286 3 286 3 19 24 c16 20 19 40 19 131 0 91 -3
111 -19 131 l-19 24 -286 3 -286 3 0 -161z"/>
</g>
</svg>
